<svg xmlns="http://www.w3.org/2000/svg" width="128.409" height="18.436" viewBox="0 0 128.409 18.436"><g transform="translate(-3.62 -2.44)"><path d="M116.288,11.665a9.129,9.129,0,0,0,9.191,9.163,12.966,12.966,0,0,0,6.347-1.66.51.51,0,0,0,.2-.415V12.229a.483.483,0,0,0-.463-.49h-4.912a.469.469,0,0,0-.49.49V14.27a.463.463,0,0,0,.49.463H128.7v2.177a8.014,8.014,0,0,1-3.048.639,5.9,5.9,0,0,1,0-11.8,5.8,5.8,0,0,1,3.864,1.483.442.442,0,0,0,.68,0l1.578-1.687a.5.5,0,0,0,0-.721,9.694,9.694,0,0,0-6.245-2.381,9.2,9.2,0,0,0-9.238,9.225m-6.8,8.449a.5.5,0,0,0,.483.483h2.381a.5.5,0,0,0,.49-.483V3.2a.5.5,0,0,0-.483-.49H110a.5.5,0,0,0-.483.49Zm-15.388,0a.483.483,0,0,0,.49.483h2.354a.5.5,0,0,0,.483-.483V13.665h6.327a.5.5,0,0,0,.483-.49v-2.1a.5.5,0,0,0-.483-.49H97.424V5.78H105a.49.49,0,0,0,.49-.49V3.2a.49.49,0,0,0-.49-.49H94.6a.49.49,0,0,0-.49.49Zm-19.728,0a.5.5,0,0,0,.49.483h2.327a.49.49,0,0,0,.49-.483V9.134h.048L88.219,20.7a.571.571,0,0,0,.435.177h.354a.483.483,0,0,0,.49-.463V3.2a.5.5,0,0,0-.49-.49H86.662a.49.49,0,0,0-.49.49V13.767h-.054L75.661,2.63a.565.565,0,0,0-.435-.184h-.381a.49.49,0,0,0-.49.463ZM56.294,11.665a5.878,5.878,0,1,1,5.864,5.864,5.878,5.878,0,0,1-5.864-5.864m-3.327,0a9.177,9.177,0,1,0,2.678-6.52,9.2,9.2,0,0,0-2.678,6.52m-12.585-.823V5.78h4.17a2.544,2.544,0,0,1,2.531,2.483,2.605,2.605,0,0,1-2.531,2.605Zm-3.354,9.3a.483.483,0,0,0,.483.483h2.354a.5.5,0,0,0,.49-.483V13.61h2.837l3.4,6.8a.435.435,0,0,0,.408.231h2.687a.483.483,0,0,0,.449-.762l-3.5-6.5a5.653,5.653,0,0,0,3.789-5.17,5.544,5.544,0,0,0-5.592-5.5h-7.32a.483.483,0,0,0-.483.49Zm-13.7-5.633,2.51-5.633h.075l2.558,5.633Zm-5.476,6.123h2.225a.776.776,0,0,0,.742-.51l1.259-2.769h7.653l1.252,2.769a.742.742,0,0,0,.742.51h2.231a.456.456,0,0,0,.435-.68L26.5,2.732a.442.442,0,0,0-.435-.286h-.259a.456.456,0,0,0-.435.286L17.416,19.957a.449.449,0,0,0,.435.68M6.919,17.6V13.025h3.15a2.19,2.19,0,0,1,2.259,2.231,2.245,2.245,0,0,1-2.259,2.327Zm0-7.374V5.753H9.708A2.041,2.041,0,0,1,11.865,7.93a2.156,2.156,0,0,1-2.156,2.3Zm5.891,1.2A4.51,4.51,0,0,0,15.368,7.44c0-2.687-2.354-4.762-5.4-4.762H4.1a.483.483,0,0,0-.483.49V20.141a.483.483,0,0,0,.483.483h6.2c3.122,0,5.585-2.075,5.585-4.939a4.2,4.2,0,0,0-3.075-4.122Z" transform="translate(0 0)"/></g></svg>